<svg xmlns="http://www.w3.org/2000/svg" viewBox="0 0 40 40"><title>logo-mobile</title><g id="negativo"><polygon points="19.65 37.79 19.56 37.76 19.64 37.67 19.64 37.67 19.55 37.6 19.64 37.67 19.64 37.56 19.64 37.67 19.72 37.58 19.64 37.67 19.64 37.67 19.73 37.75 19.65 37.79" style="fill:#edeff9"/><path d="M25.63,8.77,26.1,9l.56.23.38.18h0l.25.12h0a14.23,14.23,0,0,1,1.91,1.15h0c.32.23.64.48,1,.74l.17.14h0l0,0h0l-.07.07-.07.08h0L30,11.57c-.3-.25-.62-.49-.93-.72h0a14.3,14.3,0,0,0-1.89-1.13h0l-.25-.13A14.07,14.07,0,0,0,25.6,9h0l-.06,0h0l-.71-.23a14.45,14.45,0,0,0-7.35-.22h0a15.79,15.79,0,0,0-2.21.71l-.58.26A14.47,14.47,0,0,0,10,13l-.16.18-.12.14-.32.39a14.8,14.8,0,0,0-3.15,8c0,.13,0,.25,0,.38a14.9,14.9,0,0,0,1.51,7.46h0a14.12,14.12,0,0,0,1.42,2.3h0c.08.1.15.2.23.29h0l0,.07h0v0H9.32v.11l0-.11,0,0,0,0a14.52,14.52,0,0,1-1.35-2h0a15.1,15.1,0,0,1-1.93-7.77c0-.16,0-.31,0-.47s0-.23,0-.35H6a.08.08,0,0,1,0,0H6A14.93,14.93,0,0,1,9.2,13.51c.09-.12.19-.24.29-.35h0l0-.06L9.66,13h0a1.07,1.07,0,0,0,.14-.16,14.84,14.84,0,0,1,6.89-4.3h0c.24-.06.48-.13.72-.18a14.6,14.6,0,0,1,8.16.45l0,.07h0Z" style="fill:#edeff9"/><path d="M30.84,11.51l-.37.44-.25.29L30,12h0l-.14-.11a4.16,4.16,0,0,0-.39-.32c-.16-.13-.33-.26-.51-.38l0,0A13,13,0,0,0,27.05,10L27,10l-.2-.1c-.39-.19-.79-.35-1.18-.5l-.21-.07c-.19-.07-.4-.14-.62-.2l-.07,0-.18,0-.42-.11h0l-.19,0a14.31,14.31,0,0,0-6.28,0l0,0h-.11a14.53,14.53,0,0,0-2.12.68l-.48.21-.08,0-.13.06L14.5,10l-.17.09a.8.8,0,0,0-.16.08h0a14,14,0,0,0-3.93,3l-.16.17a1.34,1.34,0,0,1-.11.14l-.24.28-.07.09,0,0-.1.14-.11.13-.09.13A14.29,14.29,0,0,0,7,19.08c0,.06,0,.12,0,.18H7l0,.15s0,.09,0,.14l0,.13a15.13,15.13,0,0,0-.3,2l0,.37a15.2,15.2,0,0,0,0,1.91A14.56,14.56,0,0,0,7,26.36H7a16.73,16.73,0,0,0,.54,1.74h0c.08.23.18.46.28.68h0c.07.17.15.33.24.5l.06.07v.06c.1.2.21.4.32.59h0c.19.33.39.66.61,1H9c.12.17.23.34.36.5l.06.09.12.15h.08l0,.07.07.15.06.12v.31h0v.17H9.68v.68l-.17-.16-.3-.3h0L9,32.55H9l0,0a15.86,15.86,0,0,1-1.38-2h0q-.24-.43-.45-.87h0a16.62,16.62,0,0,1-.69-1.69h0a15.76,15.76,0,0,1-.59-2.27h0a16.22,16.22,0,0,1-.24-3.12c0-.16,0-.32,0-.48l0-.35v-.11h0a15.8,15.8,0,0,1,.29-1.95l0-.14L6,19.09c0-.05,0-.11,0-.16a15.42,15.42,0,0,1,2.47-5.17l.1-.12.21-.28.06-.08L9,13.2l.22-.27,0-.06.14-.15v0l.13-.15A15.12,15.12,0,0,1,15.9,8.37l.17-.06h0l.27-.08h0l.11,0,.09,0,.06,0,.08,0,.11,0h0L17.34,8a14.87,14.87,0,0,1,8,.35l.2.06h0l.14.05.17.06.13,0,.23.08.05,0,.52.21.39.18.07,0,.21.1h0a16.47,16.47,0,0,1,1.85,1.11h0l.08.09c.2.14.41.29.61.46l.34.27.17.15,0,0Z" style="fill:#edeff9"/><path d="M9.5,32.58l0,0h0a12,12,0,0,1,2-16.93,11.58,11.58,0,0,1,1.5-1h0a11.83,11.83,0,0,1,10.47-.49c.25.11.49.22.71.34a12.79,12.79,0,0,1,1.22.74l-.13.2a12.39,12.39,0,0,0-1.2-.73l-.69-.33a11.59,11.59,0,0,0-10.25.47h0a12.42,12.42,0,0,0-1.49,1,11.84,11.84,0,0,0-2,16.6l0,0-.09,0Z" style="fill:#edeff9"/><path d="M25.9,15.11l-.54.79-.29-.21-.66-.42-.5-.28c-.22-.11-.44-.22-.68-.32A11.12,11.12,0,0,0,16.11,14l-.24.06a3,3,0,0,0-.43.12l-.19.06a11.19,11.19,0,0,0-1.95.85h0a11.1,11.1,0,0,0-1.45,1c-.23.18-.46.37-.68.58l-.16.15-.15.15h0l-.13.14a1.59,1.59,0,0,0-.13.13l-.15.17a11.46,11.46,0,0,0-2,3.07c0,.07-.05.13-.07.19a3.05,3.05,0,0,0-.13.32l-.06.15a11.36,11.36,0,0,0-.45,6.32h0a11.52,11.52,0,0,0,.47,1.62h0a11.37,11.37,0,0,0,.58,1.28h0a10.88,10.88,0,0,0,.85,1.38l.05.07.26.35h0l0,0,.05.07.21.37L10,32.7l0,0-.18.06h0l0,0-.07.08-.13.15,0,0-.3-.3h0v0a11.86,11.86,0,0,1-1.34-2.1h0a9.61,9.61,0,0,1-.5-1.14h0c-.13-.33-.25-.68-.35-1H7l-.12-.45h0a12.78,12.78,0,0,1-.29-1.64h0a13.57,13.57,0,0,1-.07-1.69c0-.25,0-.5,0-.75a12.32,12.32,0,0,1,1-4l.06-.12c0-.09.08-.18.13-.27a1.19,1.19,0,0,1,.08-.16,12.53,12.53,0,0,1,1.83-2.65,10.31,10.31,0,0,1,.94-.93l.1-.09.11-.09h0l.11-.1.12-.1.15-.12a12.26,12.26,0,0,1,1.55-1h0a12.21,12.21,0,0,1,2.27-1l.14-.05.31-.08.17,0a12.22,12.22,0,0,1,6.65.17l.16,0,.36.13.21.07.52.22c.26.11.5.23.73.35l.63.35c.21.13.43.27.64.42Z" style="fill:#edeff9"/><polygon points="12.98 35.32 12.89 35.29 12.97 35.2 12.96 35.09 12.97 35.2 13.05 35.12 12.97 35.2 12.98 35.32" style="fill:#edeff9"/><path d="M10.09,33.15h0A8.49,8.49,0,0,1,10.25,22a8.33,8.33,0,0,1,7.93-2.56,7.5,7.5,0,0,1,1.37.43l-.09.22a7.89,7.89,0,0,0-1.33-.42,8.14,8.14,0,0,0-7.71,2.49A8.26,8.26,0,0,0,10.26,33l-.09.07Z" style="fill:#edeff9"/><path d="M20,19.62l-.36.88-.33-.13a6.32,6.32,0,0,0-.61-.22L18.05,20a7.74,7.74,0,0,0-7.36,2.38,7.91,7.91,0,0,0-.19,10.38l0,0,.24.28-.24.2-.1.09-.07.07-.24.27-.23-.21,0,0h0l0,0a1,1,0,0,1-.13-.16,1.83,1.83,0,0,1-.13-.16,8.79,8.79,0,0,1-.86-1.35c-.07-.13-.14-.27-.2-.4h0c-.06-.14-.12-.28-.17-.43a1.75,1.75,0,0,1-.12-.32c0-.13-.09-.26-.13-.4S8,29.94,8,29.83H8c-.06-.21-.1-.43-.14-.64l-.06-.39h0a8.35,8.35,0,0,1-.07-1.32h0a8.8,8.8,0,0,1,2-5.48.76.76,0,0,1,.11-.14.86.86,0,0,1,.13-.14l.21-.23.31-.3a8.38,8.38,0,0,1,1.76-1.27l.14-.08.15-.07h0l.16-.08.18-.08a8.57,8.57,0,0,1,2.68-.71l.15,0,.33,0h.18a8.56,8.56,0,0,1,2,.19,7,7,0,0,1,.87.24l.56.2Z" style="fill:#edeff9"/><path d="M22.39,38a18,18,0,0,1-12.27-4.83A18.52,18.52,0,0,1,9,7.18,18.12,18.12,0,0,1,34.72,6l.27.23.27.23a.12.12,0,0,1,0,.17h0a.1.1,0,0,1-.16,0l-.26-.23-.28-.24A17.89,17.89,0,0,0,9.14,7.34,18.31,18.31,0,0,0,10.28,33,17.88,17.88,0,0,0,35.6,32a.11.11,0,0,1,.16,0h0a.12.12,0,0,1,0,.17A18.18,18.18,0,0,1,22.39,38Z" style="fill:#edeff9;stroke:#edeff9;stroke-miterlimit:10;stroke-width:0.7131850565273198px"/><path d="M36.16,32a.47.47,0,0,1-.13.34,18.42,18.42,0,0,1-8.84,5.37,18.42,18.42,0,0,1-17.08-4.08l-.23-.21,0,0h0l-.17-.16-.17-.16-.3-.3h0L9,32.55H9A18.9,18.9,0,0,1,8.71,6.94a18.46,18.46,0,0,1,26.2-1.23l.05,0s.14.12.26.23l.27.23a.54.54,0,0,1,.16.34.45.45,0,0,1-.13.35.46.46,0,0,1-.65,0l-.27-.22-.28-.25,0,0a17.45,17.45,0,0,0-6.41-3.75l-.18-.06-.18-.05h0l-.18,0-.18-.05h0a17.62,17.62,0,0,0-12.1,1l-.22.1-.4.2-.18.09a17.94,17.94,0,0,0-7.56,7.75h0c0,.07-.07.13-.1.2h0l-.17.35-.07.16h0a17.66,17.66,0,0,0-1.52,6.43.91.91,0,0,0,0,.17h0c0,.1,0,.2,0,.3v.16c0,.35,0,.7,0,1.05a18.24,18.24,0,0,0,1,5.23h0a18.24,18.24,0,0,0,.92,2.13h0l.16.3h0c.23.42.47.83.73,1.23h0a.56.56,0,0,1,0,.08l.31.45H8c.11.17.23.33.35.49l.29.38h0c.17.23.36.45.55.66h0l.55.6.19.2h0l.58.56h0a17.5,17.5,0,0,0,24.82-1,.46.46,0,0,1,.66,0A.46.46,0,0,1,36.16,32Z" style="fill:#edeff9;stroke:#edeff9;stroke-miterlimit:10;stroke-width:0.7131850565273198px"/><ellipse cx="35.39" cy="6.8" rx="1.45" ry="1.47" style="fill:#64a4ed"/><ellipse cx="25.57" cy="15.52" rx="1.04" ry="1.05" style="fill:#64a4ed"/><ellipse cx="19.89" cy="20.18" rx="0.83" ry="0.84" style="fill:#64a4ed"/><ellipse cx="30.54" cy="11.94" rx="1.25" ry="1.26" style="fill:#64a4ed"/><path d="M25.78,3.82a3.62,3.62,0,0,0,.58,5,3.74,3.74,0,0,1,.43.45s.31.19.35.24l-.47-.36-.19.09-.05,0a.34.34,0,0,1-.08-.09A.79.79,0,0,0,26.21,9L26.1,9,26,8.83a3.84,3.84,0,0,1-.38-5.15,5.15,5.15,0,0,1,2.26-1.4h0l.32-.1c.07,0,.14.08.15.08l0,.12-.11,0A5.46,5.46,0,0,0,25.78,3.82Z" style="fill:#edeff9"/><path d="M28.44,2.23l0-.11h-.05a.27.27,0,0,0-.22-.07l-.09,0h0l-.21.07h0l-.14.05-.54.22h0A4.44,4.44,0,0,0,25.5,3.6a3.94,3.94,0,0,0-.82,2.9,4,4,0,0,0,.68,1.81c.08.1.15.2.24.3a1.51,1.51,0,0,0,.21.23l.08.08L26,9l.12.1h0a.44.44,0,0,1,.08.1v0l0,0,0,0a.43.43,0,0,0,.1.09l.05,0,.06,0,.13-.07,0,0h0l0,0s.05.06.21.17l0,0,.09.06h0a.09.09,0,0,0,.07,0h0a.1.1,0,0,0,.08,0l.07-.09-.08-.08,0,0h0L27,9.28l-.17-.12-.05-.06a3.48,3.48,0,0,0-.34-.34l-.15-.12a3.49,3.49,0,0,1-1.13-2.19c0-.14,0-.28,0-.41a3.45,3.45,0,0,1,.74-2.14,4.74,4.74,0,0,1,2-1.24l.41-.14.1,0,0,0h0l.07,0Zm-2.12.94a6.13,6.13,0,0,1,1.17-.63h0l.37-.14h0l.16-.06-.55.21A5.84,5.84,0,0,0,26.32,3.17Zm.12,6,0,0,0,0L26.33,9a.75.75,0,0,1,.09.09l.07.06,0,0ZM24.92,6.48a.5.5,0,0,0,0,.12.5.5,0,0,1,0-.12l0-.33Zm0,.25a2.22,2.22,0,0,0,.09.37A2.22,2.22,0,0,1,25,6.73Z" style="fill:#edeff9"/><path d="M18.32,8.25h0l-.07.09h.16Zm-.09-.08.09.08h0Z" style="fill:#edeff9"/><path d="M17.29,8.55a3.22,3.22,0,0,1-2.2-.86,3.32,3.32,0,0,1,.24-5.05l.14.19a3.62,3.62,0,0,0-.41.38,3.08,3.08,0,0,0,.19,4.3,3,3,0,0,0,2.2.8v.23Z" style="fill:#edeff9"/><path d="M17.58,8.52V8.18h-.12a2.76,2.76,0,0,1-.76-.07,2.79,2.79,0,0,1-1.35-.7,3,3,0,0,1-.3-4l.12-.14a2.6,2.6,0,0,1,.39-.36l.1-.07-.05-.07-.14-.2-.09-.12-.1.07L15,2.8h0A1.21,1.21,0,0,0,14.8,3a3.11,3.11,0,0,0-.23.28h0a4.08,4.08,0,0,0-.34.57,3.6,3.6,0,0,0-.31,1.6A3.44,3.44,0,0,0,15,7.78a3.72,3.72,0,0,0,.89.59,2.84,2.84,0,0,0,.56.19,3.33,3.33,0,0,0,.55.1h.58ZM14.22,5.9a2.86,2.86,0,0,0,.07.28A2.86,2.86,0,0,1,14.22,5.9Zm.41,1,.15.23A1.82,1.82,0,0,1,14.63,6.93Z" style="fill:#edeff9"/><path d="M8.44,13.65A2.1,2.1,0,0,1,7,13.08a2.18,2.18,0,0,1-.54-2.38l.22.09a1.94,1.94,0,0,0,.48,2.12,1.87,1.87,0,0,0,2.5,0l.16.18A2.08,2.08,0,0,1,8.44,13.65Z" style="fill:#edeff9"/><path d="M9.9,13.05l-.16-.19-.06-.08-.09.08L9.47,13l-.05,0A1.72,1.72,0,0,1,9,13.2a1.77,1.77,0,0,1-1.75-.38,1.82,1.82,0,0,1-.57-1.25h0a1.89,1.89,0,0,1,.12-.74l0-.11-.1,0-.22-.09-.12-.05-.05.11a2.17,2.17,0,0,0-.13.5h0a2.6,2.6,0,0,0,0,.56,2.63,2.63,0,0,0,.13.57h0a2.21,2.21,0,0,0,.59.89,2.27,2.27,0,0,0,1.52.6h.11a2.27,2.27,0,0,0,.52-.09.8.8,0,0,0,.2-.07l.13,0,.12-.07h0l.13-.08.16-.11.07-.06.09-.08Z" style="fill:#edeff9"/><path d="M5.61,19.53a1.41,1.41,0,0,1-.42-.07c-.36-.13-.83-.72-.79-.95s0-.12.12-.12v.24l0,0a.06.06,0,0,0,0,0,1.5,1.5,0,0,0,.68.67c.52.17.73,0,.81-.18l.1.05.1.07A.73.73,0,0,1,5.61,19.53Z" style="fill:#edeff9"/><path d="M6.4,19.11,6.22,19l-.14-.07-.06,0L6,19c-.11.19-.33.24-.66.13a1.45,1.45,0,0,1-.49-.41.47.47,0,0,1-.11-.16H4.63v-.28H4.48a.22.22,0,0,0-.2.22.75.75,0,0,0,.16.46,1.61,1.61,0,0,0,.35.39,1,1,0,0,0,.36.23,1.59,1.59,0,0,0,.46.08,1,1,0,0,0,.31,0,.84.84,0,0,0,.45-.37h0l0-.1Z" style="fill:#edeff9"/><path d="M25.63,8.77,26.1,9,26,8.83a4.79,4.79,0,0,1,.57.21l.12.14.38.18h0l-.14.19a3,3,0,0,0-.44-.28l-.13-.06A2.88,2.88,0,0,0,25.59,9h-.05a2.82,2.82,0,0,0-2.44.92A2.87,2.87,0,0,0,22.36,12a2.9,2.9,0,0,0,.92,2l.21.17h0l-.14.19-.23-.19a2.83,2.83,0,0,1-.24-.25h0a3.07,3.07,0,0,1-.75-1.9,3.08,3.08,0,0,1,2.68-3.22,3.22,3.22,0,0,1,.76,0Z" style="fill:#edeff9"/><path d="M27.13,9.27l0,0-.32-.15,0,0L26.63,9l0,0h0a1.39,1.39,0,0,0-.28-.12h0L26,8.72l-.19-.05-.21-.06h-.05l.05,0h0a3,3,0,0,0-.43,0h0l-.35,0-.26,0a2.72,2.72,0,0,0-.63.2A3.2,3.2,0,0,0,22,12a3.21,3.21,0,0,0,.35,1.34,2.41,2.41,0,0,0,.3.48h0l.13.16.21.22,0,0,.24.2.1.07.08-.11.15-.2,0-.06L23.56,14h0l-.19-.16a1.93,1.93,0,0,1-.27-.3,2.75,2.75,0,0,1,.1-3.58,2.76,2.76,0,0,1,2.34-.88h0a2.44,2.44,0,0,1,.7.2h0l.13.06.05,0c.13.07.25.15.37.23l.09.08L27,9.61h0l.07-.09h0l.07-.1h0l.08-.09Zm-1.67-.4h0ZM23.2,14a.69.69,0,0,0,.13.11Z" style="fill:#edeff9"/><path d="M16.05,13.66a2.44,2.44,0,0,1-1.09-.6,2.64,2.64,0,0,1-.17-3.71,2.27,2.27,0,0,1,.32-.3l.07.1.09.08h0a1.79,1.79,0,0,0-.28.27,2.42,2.42,0,0,0,.14,3.38,2.33,2.33,0,0,0,1,.54Z" style="fill:#edeff9"/><path d="M16.24,13.35l-.1,0a2,2,0,0,1-.43-.17,2.26,2.26,0,0,1-.52-.35,2.31,2.31,0,0,1-.3-3l.16-.2a3.45,3.45,0,0,1,.28-.26l.11-.1,0,0-.14-.13,0-.06-.09-.11L15,9l-.26.23-.08.08c-.09.11-.18.22-.26.34a2.73,2.73,0,0,0-.27.54h0a2.78,2.78,0,0,0,.71,3l.21.18a3.34,3.34,0,0,0,.4.25,1.39,1.39,0,0,0,.28.12l.08,0h.05l.12,0h0l.09,0,0-.12v0l0-.14h0l0-.12v0Zm-1.79-1.2a1.11,1.11,0,0,0,.09.19A1.11,1.11,0,0,1,14.45,12.15Z" style="fill:#edeff9"/><path d="M11.39,15.85A2,2,0,0,1,10,15.31a2,2,0,0,1-.55-2.13l0-.08.22.08a.25.25,0,0,0,0,.07,1.78,1.78,0,0,0,1.83,2.35l0,.24Z" style="fill:#edeff9"/><path d="M11.67,15.77l0-.28v0h-.12a1.48,1.48,0,0,1-.42,0,1.62,1.62,0,0,1-.84-.41,1.73,1.73,0,0,1-.54-1.26,1.7,1.7,0,0,1,.09-.5h0l0,0,0-.11,0,0-.09,0h0L9.61,13h0L9.47,13h0l0,.05,0,.06a.92.92,0,0,0,0,.09v0h0a1.46,1.46,0,0,0,0,.2h0a.44.44,0,0,0,0,.1s0,.09,0,.13a1.62,1.62,0,0,0,0,.22,2.22,2.22,0,0,0,.06.51,2.15,2.15,0,0,0,1.35,1.51,1.68,1.68,0,0,0,.32.09h.7Zm-.24,0Zm-.57-.08h0Z" style="fill:#edeff9"/><path d="M7.6,19.85a.77.77,0,0,1-.25,0,1,1,0,0,1-.67-.67l.23-.07a.81.81,0,0,0,.52.52.77.77,0,0,0,.6-.11l.13.2A1.09,1.09,0,0,1,7.6,19.85Z" style="fill:#edeff9"/><path d="M8.23,19.56l-.16-.24-.1.06-.07,0a.57.57,0,0,1-.44,0A.65.65,0,0,1,7,19.08l0,0,0-.12-.3.09-.15,0,0,.12a.55.55,0,0,0,0,.13,1.17,1.17,0,0,0,.27.38,1.23,1.23,0,0,0,.42.25.92.92,0,0,0,.29,0h0A1,1,0,0,0,8,19.9l.07,0,.07,0,.09,0,.1-.07Z" style="fill:#edeff9"/><path d="M9.6,21.87a1.49,1.49,0,0,1-1-.41A1.53,1.53,0,0,1,8.1,20v0l.1,0h.12v0h0a1.32,1.32,0,0,0,.4,1.26,1.29,1.29,0,0,0,1.74,0l.07.08.1.09h0A1.51,1.51,0,0,1,9.6,21.87Z" style="fill:#edeff9"/><path d="M10.76,21.43l-.15-.13-.1-.12,0-.05-.09.08a1.17,1.17,0,0,1-1.58,0,1.17,1.17,0,0,1-.36-1.14l0-.11h0l0-.08H8.23l-.09,0,0,0-.06,0,0,.12H8L8,20l0,.18a1.8,1.8,0,0,0,0,.52,1.91,1.91,0,0,0,.19.5,1.52,1.52,0,0,0,.32.4A1.61,1.61,0,0,0,9.6,22h.15a1.82,1.82,0,0,0,.67-.22,2.83,2.83,0,0,0,.28-.2l.1-.11Zm-1.49.28a.41.41,0,0,0,.16,0A.41.41,0,0,1,9.27,21.71Z" style="fill:#edeff9"/><path d="M13.3,20a2.56,2.56,0,0,1-1.75-.69,2.64,2.64,0,0,1-.42-3.39h0l.08.08.1.07a2.38,2.38,0,0,0,.38,3.08,2.36,2.36,0,0,0,1.77.62V20H13.3Z" style="fill:#edeff9"/><path d="M13.61,20l0-.24v-.09h-.12a2.73,2.73,0,0,1-.57,0,2.28,2.28,0,0,1-1.74-2.92,2.12,2.12,0,0,1,.27-.57l.06-.1-.06,0h0l-.11-.07-.05-.05,0,0-.11-.1-.07.1,0,0,0,.08a1.13,1.13,0,0,0-.12.21h0a2.34,2.34,0,0,0-.19.5,2.59,2.59,0,0,0-.1.61,2.79,2.79,0,0,0,1.69,2.66,4.58,4.58,0,0,0,.49.15h0a2.22,2.22,0,0,0,.45.05h.4Zm-1-.19.09,0-.09,0a2.13,2.13,0,0,1-.41-.18A3,3,0,0,0,12.56,19.76ZM10.84,17a2.42,2.42,0,0,1,.22-.69h0a.05.05,0,0,1,0,0l0,0a2.12,2.12,0,0,0-.21.69,2.48,2.48,0,0,0,0,.86A2.75,2.75,0,0,1,10.84,17Zm.33-.9h0l0,0Z" style="fill:#edeff9"/><path d="M16.47,19.43a3.49,3.49,0,0,1-.89-5.38,3.32,3.32,0,0,1,.89-.7l.11.21a3.41,3.41,0,0,0-.82.65,3.26,3.26,0,0,0,.2,4.56,3.14,3.14,0,0,0,.63.45l0,0-.08.09Z" style="fill:#edeff9"/><path d="M16.78,19.21l-.1-.07,0,0a2.48,2.48,0,0,1-.4-.26l-.2-.17a3.12,3.12,0,0,1-.19-4.39,3.07,3.07,0,0,1,.26-.25,2.4,2.4,0,0,1,.53-.37l.1-.06,0-.06-.12-.23-.08-.13-.1.05-.17.11-.11.07h0l-.24.18-.1.09-.08.07-.19.2a2.42,2.42,0,0,0-.25.31,3.52,3.52,0,0,0-.68,2.27,3.57,3.57,0,0,0,1,2.34,1.85,1.85,0,0,0,.14.14l.22.19.32.23h0l.15.08.1.06.08-.14,0-.05.17-.18Z" style="fill:#edeff9"/></g></svg>