<svg xmlns="http://www.w3.org/2000/svg" viewBox="0 0 178 40"><title>logo-desktop</title><g id="negativo"><polygon points="17.14 38.19 17.05 38.16 17.13 38.07 17.13 38.07 17.04 37.99 17.13 38.07 17.13 37.95 17.13 38.06 17.21 37.98 17.13 38.06 17.13 38.07 17.22 38.15 17.14 38.19" style="fill:#edeff9"/><path d="M23.18,9.17l.47.17.57.23.39.18h0l.26.12h0A14.77,14.77,0,0,1,26.82,11h0c.32.23.64.48,1,.74l.16.14h0l0,0h0l-.07.08-.07.08h0L27.63,12c-.3-.25-.62-.49-.93-.71h0a14.27,14.27,0,0,0-1.92-1.14h0L24.5,10a14.25,14.25,0,0,0-1.35-.56h0l-.06,0h0l-.72-.23a14.61,14.61,0,0,0-7.42-.21h0a13.45,13.45,0,0,0-2.23.71l-.59.25a14.55,14.55,0,0,0-4.73,3.45l-.16.18-.12.14c-.11.12-.22.25-.32.38a14.72,14.72,0,0,0-3.18,8l0,.38a15,15,0,0,0,1.53,7.47h0a14.24,14.24,0,0,0,1.44,2.3h0l.23.3h0l0,.06h0v0H6.71v.11l0-.1h0l0,0a14.52,14.52,0,0,1-1.35-2h0a15,15,0,0,1-2-7.77c0-.15,0-.31,0-.46l0-.35h0V22h0A14.86,14.86,0,0,1,6.59,13.9l.28-.35h0a.1.1,0,0,1,0-.05l.13-.15h0l.15-.16a14.91,14.91,0,0,1,7-4.3h0l.73-.19a15,15,0,0,1,8.24.45l0,.07h0Z" style="fill:#edeff9"/><path d="M28.44,11.9l-.37.44-.25.29-.27-.27h0l-.13-.11-.4-.32-.52-.38,0,0a14.1,14.1,0,0,0-1.85-1.1l-.06,0-.21-.1c-.39-.18-.79-.35-1.19-.5L23,9.72l-.62-.2-.08,0-.18-.05-.43-.12h0l-.2,0a14.43,14.43,0,0,0-6.34,0l0,0H15a14.39,14.39,0,0,0-2.14.68l-.49.21-.08,0-.12.06-.19.09-.17.09-.17.08h0a14.32,14.32,0,0,0-4,3.05l-.16.17-.12.14-.24.28-.07.09,0,.06-.11.13a.64.64,0,0,1-.1.13l-.09.13A14.32,14.32,0,0,0,4.4,19.48c0,.05,0,.11,0,.17h0c0,.05,0,.1,0,.15l0,.14a.7.7,0,0,0,0,.14,13.55,13.55,0,0,0-.31,2l0,.37a15.2,15.2,0,0,0,0,1.91,13.68,13.68,0,0,0,.38,2.39h0a13.45,13.45,0,0,0,.54,1.74h0c.09.23.19.46.29.69h0l.24.5.06.07v.06c.11.2.21.4.33.6h0c.19.33.39.66.61,1h0c.11.17.23.33.35.5l.07.08.12.16H7l0,.07.07.14.06.13v.31h0V33H7.07v.68l-.17-.16-.3-.3h0L6.36,33h0l0,0a15.82,15.82,0,0,1-1.39-2v0A9,9,0,0,1,4.46,30h0a15.28,15.28,0,0,1-.7-1.68h0A14.85,14.85,0,0,1,3.17,26h0a15.46,15.46,0,0,1-.25-3.12c0-.16,0-.31,0-.47l0-.35v-.13A15.36,15.36,0,0,1,3.27,20a.83.83,0,0,1,0-.15c0-.12,0-.24.08-.37s0-.11,0-.16a15.1,15.1,0,0,1,2.49-5.17L6,14l.21-.28.07-.08.06-.08.23-.27.05-.06.13-.15,0,0L6.93,13a15.24,15.24,0,0,1,6.42-4.19l.17-.06h0l.27-.08h0l.11,0,.09,0,.06,0,.08,0,.11,0h0l.55-.14a15.26,15.26,0,0,1,8.1.35l.19.06h0l.14.05.17.06.13.05.23.09.06,0c.18.07.36.14.52.22l.4.17.07,0,.21.1h0a15.23,15.23,0,0,1,1.88,1.11h0l.08.09c.2.14.41.3.61.46l.34.27.18.15,0,0Z" style="fill:#edeff9"/><path d="M6.88,33v0h0a11.95,11.95,0,0,1,.51-15.54A11.63,11.63,0,0,1,8.89,16a11.07,11.07,0,0,1,1.52-1h0A12,12,0,0,1,21,14.51l.71.34A11.36,11.36,0,0,1,23,15.6l-.13.19a10.83,10.83,0,0,0-1.22-.72c-.22-.12-.45-.23-.7-.34a11.75,11.75,0,0,0-10.34.48h0a11.54,11.54,0,0,0-1.51,1,11.79,11.79,0,0,0-1.47,1.36A11.65,11.65,0,0,0,7.05,32.8l0,0-.09,0Z" style="fill:#edeff9"/><path d="M23.45,15.5l-.54.79-.3-.2c-.21-.15-.44-.29-.66-.43l-.51-.28c-.22-.11-.44-.22-.68-.32a11.43,11.43,0,0,0-7.2-.63l-.24.06-.43.12-.2.06a11.28,11.28,0,0,0-2,.85h0a10.32,10.32,0,0,0-1.47,1c-.23.18-.46.38-.68.58l-.17.15-.15.15h0l-.14.14L8,17.64l-.16.17a11.7,11.7,0,0,0-2,3.08,1.42,1.42,0,0,1-.08.18c0,.11-.09.22-.13.32l-.06.15a11.27,11.27,0,0,0-.45,6.32h0a11.44,11.44,0,0,0,.48,1.61h0a10.34,10.34,0,0,0,.58,1.27h0A12.61,12.61,0,0,0,7,32.15l0,.07.26.34h0v0l0,.08.21.36-.18.07,0,0-.18.07h0l0,0-.07.07-.13.15,0,0-.3-.3h0a12.43,12.43,0,0,1-1.36-2.11h0c-.19-.37-.36-.75-.51-1.13h0c-.13-.34-.24-.68-.34-1h0c0-.14-.09-.3-.13-.45h0A12.63,12.63,0,0,1,4,26.82H4a13.41,13.41,0,0,1-.07-1.68c0-.25,0-.51,0-.76a12.28,12.28,0,0,1,1.06-4l.06-.13c0-.09.08-.18.13-.27s0-.1.08-.16a12.26,12.26,0,0,1,1.85-2.65c.3-.32.62-.63,1-.93l.1-.09.11-.09h0a.52.52,0,0,0,.11-.1l.13-.09a1.58,1.58,0,0,1,.15-.12,12.44,12.44,0,0,1,1.56-1h0a12.06,12.06,0,0,1,2.28-1l.15,0,.31-.09.17,0a12.47,12.47,0,0,1,6.72.16l.16.06.36.12.21.08.53.21.74.36a6.61,6.61,0,0,1,.63.35c.22.13.43.26.64.41Z" style="fill:#edeff9"/><polygon points="10.4 35.72 10.31 35.68 10.39 35.6 10.38 35.48 10.39 35.59 10.47 35.51 10.39 35.59 10.4 35.72" style="fill:#edeff9"/><path d="M7.48,33.55h0a8.45,8.45,0,0,1,8.18-13.76,8.59,8.59,0,0,1,1.39.43l-.09.22A8.07,8.07,0,0,0,15.6,20,8.2,8.2,0,0,0,7.65,33.38l-.08.07Z" style="fill:#edeff9"/><path d="M17.5,20l-.36.89-.33-.14-.62-.22c-.22-.07-.44-.12-.66-.17A7.84,7.84,0,0,0,7.9,33.12l0,0,.24.27-.24.2-.1.09-.07.08-.24.26-.24-.21,0,0h0l0,0-.13-.15-.13-.17a8.15,8.15,0,0,1-.87-1.35l-.2-.4h0l-.18-.42L5.57,31c-.05-.13-.09-.26-.13-.39l-.09-.34h0c0-.21-.1-.42-.14-.64l-.06-.39h0a8.35,8.35,0,0,1-.07-1.32h0a8.73,8.73,0,0,1,2.06-5.48l.11-.14.13-.14.21-.22c.1-.11.21-.21.32-.31A8.88,8.88,0,0,1,9.69,20.3l.14-.07.15-.08h0l.16-.08.19-.08a8.62,8.62,0,0,1,2.7-.71h.15l.33,0h.19a9.36,9.36,0,0,1,2,.19q.43.11.87.24l.57.21Z" style="fill:#edeff9"/><path d="M19.91,38.41a18.41,18.41,0,1,1,12.45-32l.27.24a2.56,2.56,0,0,1,.27.23.12.12,0,0,1,0,.17h0a.14.14,0,0,1-.17,0l-.26-.23-.28-.24A18.18,18.18,0,0,0,6.53,7.73,18.17,18.17,0,0,0,33.25,32.36a.12.12,0,0,1,.17,0h0a.12.12,0,0,1,0,.17,18.31,18.31,0,0,1-8.76,5.27A18.83,18.83,0,0,1,19.91,38.41Z" style="fill:#edeff9;stroke:#edeff9;stroke-miterlimit:10;stroke-width:0.7167419748068344px"/><path d="M33.81,32.42a.5.5,0,0,1-.12.35A18.74,18.74,0,0,1,7.51,34.05l-.24-.21,0,0h0l-.17-.16-.17-.16-.3-.3h0L6.36,33h0A18.77,18.77,0,0,1,32.55,6.1s0,0,.05.05l.27.22.27.23a.54.54,0,0,1,.16.34.45.45,0,0,1-.13.35.47.47,0,0,1-.66,0,3.53,3.53,0,0,0-.27-.23C32.11,7,32,6.88,32,6.85l-.06,0a17.71,17.71,0,0,0-6.46-3.75l-.19,0-.18-.06h0l-.18-.06-.18,0h0a18,18,0,0,0-12.22,1l-.23.11-.4.19-.18.1A17.8,17.8,0,0,0,6.79,8,18.24,18.24,0,0,0,4,12H4l-.1.21h0l-.17.34-.07.16h0A17.73,17.73,0,0,0,2.15,19.1a1,1,0,0,0,0,.17h0c0,.11,0,.21,0,.31v.16c0,.35,0,.7,0,1.05a17.54,17.54,0,0,0,1,5.22h0a18.24,18.24,0,0,0,.92,2.13h0c.06.1.11.2.16.3h0c.23.42.48.83.74,1.24H5l0,.08.31.45h0l.36.5c.1.12.2.25.29.38H6c.17.22.36.44.55.66h0l.56.6.19.2h0c.19.19.38.38.58.56l0,0a17.82,17.82,0,0,0,25.07-1,.47.47,0,0,1,.82.3Z" style="fill:#edeff9;stroke:#edeff9;stroke-miterlimit:10;stroke-width:0.7167419748068344px"/><circle cx="33.03" cy="7.19" r="1.47" style="fill:#64a4ed"/><circle cx="23.12" cy="15.91" r="1.05" style="fill:#64a4ed"/><circle cx="17.38" cy="20.57" r="0.84" style="fill:#64a4ed"/><circle cx="28.14" cy="12.33" r="1.26" style="fill:#64a4ed"/><path d="M23.33,4.22a3.58,3.58,0,0,0,.59,5,3.74,3.74,0,0,1,.43.45s.31.2.36.24l-.48-.36-.19.1L24,9.7a.24.24,0,0,1-.08-.09,1.27,1.27,0,0,0-.14-.17l-.12-.1-.12-.11a3.81,3.81,0,0,1-.39-5.16,5.18,5.18,0,0,1,2.28-1.39h0l.32-.11c.07,0,.14.09.15.08l0,.12-.12,0A5.6,5.6,0,0,0,23.33,4.22Z" style="fill:#edeff9"/><path d="M26,2.62l0-.11h-.06a.22.22,0,0,0-.22-.06l-.09,0h0l-.21.07h0l-.15.06c-.16,0-.35.13-.54.21h0A4.54,4.54,0,0,0,23.05,4a4,4,0,0,0-.83,2.91,4,4,0,0,0,.69,1.8,3.24,3.24,0,0,0,.24.31,2.13,2.13,0,0,0,.21.22l.08.08.13.12.12.1h0a.45.45,0,0,1,.09.1s0,0,0,0l0,0,0,0a.22.22,0,0,0,.1.09l.05,0,.06,0,.13-.06,0,0h0l0,0s.05.06.22.16l0,0,.1.06h0l.07,0h0a.12.12,0,0,0,.08,0l.07-.09-.08-.07a.1.1,0,0,0-.05,0h0l-.17-.13-.16-.13-.05-.05A3.23,3.23,0,0,0,24,9.16L23.84,9A3.45,3.45,0,0,1,22.7,6.84a2.83,2.83,0,0,1,0-.41,3.42,3.42,0,0,1,.75-2.14,4.81,4.81,0,0,1,2-1.24l.41-.13.09,0,0,0h0l.07,0Zm-2.14.94a6.49,6.49,0,0,1,1.19-.62h0l.38-.15h0l.16,0c-.15,0-.34.11-.55.2A6.87,6.87,0,0,0,23.87,3.56Zm.13,6,0,0,0,0a.16.16,0,0,0-.06-.08l.1.09.07.07,0,0ZM22.46,6.87s0,.09,0,.13,0-.09,0-.13,0-.22,0-.33C22.44,6.65,22.45,6.76,22.46,6.87Zm0,.25a2.34,2.34,0,0,0,.09.38A2.34,2.34,0,0,1,22.5,7.12Z" style="fill:#edeff9"/><path d="M15.8,8.64h0l-.08.09.17,0Zm-.09-.07.09.08h0Z" style="fill:#edeff9"/><path d="M14.75,8.94a3.25,3.25,0,0,1-2.21-.86,3.29,3.29,0,0,1-.21-4.64A3.47,3.47,0,0,1,12.78,3l.14.19a3.62,3.62,0,0,0-.41.38,3,3,0,0,0,2.41,5.1v.24Z" style="fill:#edeff9"/><path d="M15.05,8.91V8.57h-.12a3.29,3.29,0,0,1-.77-.06,3,3,0,0,1-1.36-.7,2.94,2.94,0,0,1-.3-4,.75.75,0,0,1,.12-.14A3.33,3.33,0,0,1,13,3.32l.1-.07L13,3.19,12.89,3l-.09-.12-.09.07a2.51,2.51,0,0,0-.31.26h0l-.16.16a3.11,3.11,0,0,0-.23.28h0a3.33,3.33,0,0,0-.65,2.16,3.37,3.37,0,0,0,1.1,2.36,3.45,3.45,0,0,0,.89.59,3.85,3.85,0,0,0,.57.2,4.85,4.85,0,0,0,.55.09h.59ZM11.66,6.29a2.29,2.29,0,0,0,.07.28A2.29,2.29,0,0,1,11.66,6.29Zm.41,1,.15.22A1.7,1.7,0,0,1,12.07,7.33Z" style="fill:#edeff9"/><path d="M5.82,14a2.15,2.15,0,0,1-2-2.95l.22.09a1.91,1.91,0,0,0,3,2.17l.16.18A2.15,2.15,0,0,1,5.82,14Z" style="fill:#edeff9"/><path d="M7.29,13.44l-.16-.19-.06-.07L7,13.25l-.12.1-.05,0a2,2,0,0,1-.44.21,1.76,1.76,0,0,1-1.76-.38A1.79,1.79,0,0,1,4,12H4a1.89,1.89,0,0,1,.12-.74l0-.11-.1,0L3.88,11l-.13,0,0,.11a2.09,2.09,0,0,0-.13.49h0a2.12,2.12,0,0,0,0,.56,2.15,2.15,0,0,0,.13.57h0a2.07,2.07,0,0,0,.6.89,2.21,2.21,0,0,0,1.53.6h.11a1.82,1.82,0,0,0,.52-.08L6.66,14l.12-.06.13-.06h0l.13-.09a.91.91,0,0,0,.16-.11l.08-.06.09-.08Z" style="fill:#edeff9"/><path d="M3,19.93a1.59,1.59,0,0,1-.43-.08c-.36-.12-.83-.72-.79-1s0-.12.11-.12V19l0,0a.17.17,0,0,0,0-.05,1.48,1.48,0,0,0,.69.67c.52.18.73,0,.81-.18l.11.06.1.06A.75.75,0,0,1,3,19.93Z" style="fill:#edeff9"/><path d="M3.76,19.5l-.18-.11-.14-.07-.07,0-.05.09c-.11.2-.34.24-.67.13a1.39,1.39,0,0,1-.5-.41C2.09,19,2,19,2,18.94H2v-.29H1.81a.22.22,0,0,0-.19.22.69.69,0,0,0,.16.46,1.86,1.86,0,0,0,.35.4A1.2,1.2,0,0,0,2.5,20,1.28,1.28,0,0,0,3,20a1,1,0,0,0,.31,0,.84.84,0,0,0,.46-.38h0l.06-.1Z" style="fill:#edeff9"/><path d="M23.18,9.17l.47.17-.12-.11a3.28,3.28,0,0,1,.57.21l.12.13.39.18h0l-.15.19A2.89,2.89,0,0,0,24,9.68l-.13-.07a3.06,3.06,0,0,0-.77-.22h-.05a2.87,2.87,0,0,0-3.21,3,2.81,2.81,0,0,0,.93,2,1.2,1.2,0,0,0,.21.17h0l-.14.19-.23-.19-.25-.26h0a3.1,3.1,0,0,1,.05-4.13,3.15,3.15,0,0,1,1.9-1,3.3,3.3,0,0,1,.77,0Z" style="fill:#edeff9"/><path d="M24.69,9.66l0,0-.32-.14-.05,0a.52.52,0,0,1-.1-.11l0,0h0l-.28-.12h0l-.31-.1-.2,0L23.15,9l0,0,0,0h0a3.1,3.1,0,0,0-.43,0h0l-.36,0-.26,0a2.4,2.4,0,0,0-.64.21,3.15,3.15,0,0,0-1.08.77,3.19,3.19,0,0,0-.84,2.32,3.07,3.07,0,0,0,.36,1.33,2.41,2.41,0,0,0,.3.48h0a1,1,0,0,0,.13.16c.07.07.13.15.21.22l.05,0a1.59,1.59,0,0,0,.24.2l.1.07.08-.11.15-.2,0-.06-.09-.09h0l-.19-.16a3.83,3.83,0,0,1-.28-.29A2.78,2.78,0,0,1,20,12.36a2.72,2.72,0,0,1,.72-2,2.74,2.74,0,0,1,2.36-.87h0a2.88,2.88,0,0,1,.71.2h0l.13.06.05,0a2.35,2.35,0,0,1,.37.24l.09.07.09-.11h0l.07-.09h0l.08-.09h0l.07-.09ZM23,9.26h0Zm-2.28,5.18.13.11Z" style="fill:#edeff9"/><path d="M13.5,14.06a2.69,2.69,0,0,1-1.1-.6,2.64,2.64,0,0,1-.17-3.72l.32-.29.07.09.09.08v0l-.29.26a2.4,2.4,0,0,0,1.15,3.93Z" style="fill:#edeff9"/><path d="M13.7,13.74l-.11,0a2.23,2.23,0,0,1-.43-.16,2.68,2.68,0,0,1-.52-.36,2.27,2.27,0,0,1-.31-3L12.5,10a2.38,2.38,0,0,1,.28-.26l.11-.1,0,0-.14-.12-.05-.06-.09-.12-.09.07-.26.23-.08.08c-.09.11-.18.22-.26.34a2.77,2.77,0,0,0-.28.54h0a2.77,2.77,0,0,0,.72,3l.21.18a2.5,2.5,0,0,0,.41.25,1.69,1.69,0,0,0,.28.12l.08,0h0l0,0,.12,0h0l.1,0,0-.12v0l0-.15h0l0-.11v0Zm-1.82-1.19a1.62,1.62,0,0,0,.1.18A1.62,1.62,0,0,1,11.88,12.55Z" style="fill:#edeff9"/><path d="M8.8,16.24a2,2,0,0,1-1.93-2.67l0-.08.22.09a.14.14,0,0,0,0,.06,1.79,1.79,0,0,0,.49,1.89A1.75,1.75,0,0,0,9,16l0,.24Z" style="fill:#edeff9"/><path d="M9.09,16.17l0-.28v0l-.12,0a1.94,1.94,0,0,1-.42,0,1.71,1.71,0,0,1-.85-.42,1.69,1.69,0,0,1-.55-1.26,2.29,2.29,0,0,1,.09-.5h0s0,0,0-.05l0-.11h0l-.09,0h0L7,13.4H7l-.13-.05,0,0,0,.05,0,.07a.16.16,0,0,0,0,.08v0h0l-.06.21h0a.29.29,0,0,1,0,.09c0,.05,0,.09,0,.14a1.48,1.48,0,0,0,0,.21,2.17,2.17,0,0,0,.69,1.59,2.17,2.17,0,0,0,.73.43,1.68,1.68,0,0,0,.32.09l.1,0H9.1Zm-.25-.05ZM8.26,16h0Z" style="fill:#edeff9"/><path d="M5,20.25a.73.73,0,0,1-.25,0A1,1,0,0,1,4,19.53l.23-.07a.81.81,0,0,0,.52.52.85.85,0,0,0,.62-.1l.13.19A1.07,1.07,0,0,1,5,20.25Z" style="fill:#edeff9"/><path d="M5.6,20l-.16-.24-.1.07-.07,0a.62.62,0,0,1-.44.06.67.67,0,0,1-.43-.39.43.43,0,0,0,0-.05l0-.11-.31.08-.15.05,0,.11a.82.82,0,0,0,0,.14,1.18,1.18,0,0,0,.28.38,1.19,1.19,0,0,0,.42.24.93.93,0,0,0,.29.05H5a1.27,1.27,0,0,0,.37-.08l.08,0,.07,0,.09,0,.09-.06Z" style="fill:#edeff9"/><path d="M7,22.27a1.56,1.56,0,0,1-1.52-1.9v0l.1.05h.13v.05h0A1.32,1.32,0,0,0,7.85,21.7l.08.08.1.08,0,0A1.53,1.53,0,0,1,7,22.27Z" style="fill:#edeff9"/><path d="M8.16,21.82,8,21.69l-.1-.12,0,0-.08.08a1.21,1.21,0,0,1-2-.72,1.3,1.3,0,0,1,0-.44l0-.1h0l0-.09H5.61l-.09-.05,0,0-.07,0,0,.12h0l0,0,0,.19a1.46,1.46,0,0,0,0,.51,1.88,1.88,0,0,0,.18.5,1.6,1.6,0,0,0,.33.4A1.65,1.65,0,0,0,7,22.39h.15a1.65,1.65,0,0,0,.68-.22A1.31,1.31,0,0,0,8.1,22l.1-.1Zm-1.51.29.17,0Z" style="fill:#edeff9"/><path d="M10.73,20.39a2.63,2.63,0,0,1-2.19-4.08v0l.09.09.1.06a2.39,2.39,0,0,0,2.16,3.7l0,.24h-.19Z" style="fill:#edeff9"/><path d="M11,20.35l0-.25V20H10.9a1.79,1.79,0,0,1-.57,0,2.32,2.32,0,0,1-1.13-.56,2.24,2.24,0,0,1-.63-2.36,2.07,2.07,0,0,1,.27-.56l.06-.1-.06-.05h0l-.12-.08-.05-.05,0,0-.1-.09-.08.09,0,0a.35.35,0,0,0,0,.08,2.25,2.25,0,0,0-.12.21h0a2.64,2.64,0,0,0-.19.51,2.51,2.51,0,0,0-.1.6,2.74,2.74,0,0,0,.9,2.14,2.49,2.49,0,0,0,.81.52,2.21,2.21,0,0,0,.5.15h0a2.31,2.31,0,0,0,.46.05h.4ZM10,20.15l.09,0-.09,0A2.47,2.47,0,0,1,9.56,20,2.47,2.47,0,0,0,10,20.15ZM8.25,17.37a2.2,2.2,0,0,1,.21-.69h0a.08.08,0,0,0,0,0l0,0a2.49,2.49,0,0,0-.21.69,2.54,2.54,0,0,0,0,.87A2.54,2.54,0,0,1,8.25,17.37Zm.32-.9h0v0Z" style="fill:#edeff9"/><path d="M13.93,19.82a3.42,3.42,0,0,1-1.8-2.89,3.46,3.46,0,0,1,.9-2.49,3.41,3.41,0,0,1,.9-.7L14,14a3.27,3.27,0,0,0-.83.65,3.24,3.24,0,0,0,.2,4.56,3.09,3.09,0,0,0,.64.45l0,0-.08.09Z" style="fill:#edeff9"/><path d="M14.24,19.61l-.1-.08,0,0a3.51,3.51,0,0,1-.4-.27l-.21-.17a3.09,3.09,0,0,1,.07-4.64,3.23,3.23,0,0,1,.54-.37l.1-.06,0-.06-.12-.22L14,13.58l-.1.06a1,1,0,0,0-.17.1l-.12.07,0,0h0l-.24.17-.1.09-.08.08-.19.19a3.88,3.88,0,0,0-.26.31A3.58,3.58,0,0,0,13,19.28l.14.14a2.11,2.11,0,0,0,.23.19l.32.23h0l.15.09L14,20l.08-.14,0-.05.17-.18Z" style="fill:#edeff9"/><path d="M59.49,25.12a7.41,7.41,0,0,1-2.9-2.76,7.52,7.52,0,0,1-1.06-4,7.56,7.56,0,0,1,1.06-4,7.48,7.48,0,0,1,2.9-2.76,9.31,9.31,0,0,1,7.67-.31,7.11,7.11,0,0,1,2.64,2l-2.22,2.05a4.76,4.76,0,0,0-3.76-1.75,5,5,0,0,0-2.48.61,4.34,4.34,0,0,0-1.7,1.7,5.33,5.33,0,0,0,0,5,4.34,4.34,0,0,0,1.7,1.7,5,5,0,0,0,2.48.61,4.75,4.75,0,0,0,3.76-1.77l2.22,2.05a6.9,6.9,0,0,1-2.65,2,8.84,8.84,0,0,1-3.52.68A8.64,8.64,0,0,1,59.49,25.12Z" style="fill:#64a4ed"/><path d="M80.55,15.46A4.85,4.85,0,0,1,82,19.29v6.56H78.86V24.42c-.62,1.07-1.79,1.61-3.5,1.61a5.46,5.46,0,0,1-2.3-.45,3.44,3.44,0,0,1-1.48-1.24,3.26,3.26,0,0,1-.51-1.8A3,3,0,0,1,72.27,20,6.19,6.19,0,0,1,76,19.1h2.65A2.12,2.12,0,0,0,78,17.43a2.89,2.89,0,0,0-2-.59,5.56,5.56,0,0,0-1.8.29,4.58,4.58,0,0,0-1.51.78l-1.2-2.33a7,7,0,0,1,2.26-1,10.11,10.11,0,0,1,2.7-.36A6,6,0,0,1,80.55,15.46Zm-2.84,7.93a2.24,2.24,0,0,0,.94-1.17V21.05H76.36c-1.36,0-2,.45-2,1.34a1.22,1.22,0,0,0,.5,1,2.28,2.28,0,0,0,1.38.37A2.94,2.94,0,0,0,77.71,23.39Z" style="fill:#64a4ed"/><path d="M94.71,14.92A5.42,5.42,0,0,1,96.77,17a6.23,6.23,0,0,1,.75,3.11,6.25,6.25,0,0,1-.75,3.11,5.32,5.32,0,0,1-2.06,2.07,5.89,5.89,0,0,1-2.92.74,4.45,4.45,0,0,1-3.46-1.39V30H85V14.36h3.18v1.32a4.44,4.44,0,0,1,3.61-1.49A5.89,5.89,0,0,1,94.71,14.92Zm-1.39,7.51a3.22,3.22,0,0,0,.82-2.32,3.21,3.21,0,0,0-.82-2.32,3,3,0,0,0-4.21,0,3.21,3.21,0,0,0-.82,2.32,3.22,3.22,0,0,0,.82,2.32,3,3,0,0,0,4.21,0Z" style="fill:#64a4ed"/><path d="M107.15,25.3a3.4,3.4,0,0,1-1.2.54,6.18,6.18,0,0,1-1.51.19A4.44,4.44,0,0,1,101.27,25a4,4,0,0,1-1.13-3.08V17.18H98.37V14.62h1.77v-2.8h3.34v2.8h2.86v2.56h-2.86v4.68a1.56,1.56,0,0,0,.37,1.12,1.4,1.4,0,0,0,1.06.4,2.18,2.18,0,0,0,1.35-.43Z" style="fill:#edeff9"/><path d="M117.77,15.46a4.85,4.85,0,0,1,1.44,3.83v6.56h-3.12V24.42A3.73,3.73,0,0,1,112.58,26a5.46,5.46,0,0,1-2.3-.45,3.5,3.5,0,0,1-1.48-1.24,3.26,3.26,0,0,1-.51-1.8,3,3,0,0,1,1.2-2.52,6.19,6.19,0,0,1,3.73-.92h2.65a2.12,2.12,0,0,0-.66-1.67,2.89,2.89,0,0,0-2-.59,5.56,5.56,0,0,0-1.8.29,4.68,4.68,0,0,0-1.51.78l-1.2-2.33a7,7,0,0,1,2.26-1,10.16,10.16,0,0,1,2.7-.36A6,6,0,0,1,117.77,15.46Zm-2.84,7.93a2.19,2.19,0,0,0,.94-1.17V21.05h-2.29c-1.36,0-2,.45-2,1.34a1.2,1.2,0,0,0,.51,1,2.23,2.23,0,0,0,1.37.37A2.94,2.94,0,0,0,114.93,23.39Z" style="fill:#edeff9"/><path d="M122.22,10h3.33V25.85h-3.33Z" style="fill:#edeff9"/><path d="M139.85,21.05h-8.7a2.64,2.64,0,0,0,1.11,1.68,3.62,3.62,0,0,0,2.18.62,4.35,4.35,0,0,0,1.59-.26,3.85,3.85,0,0,0,1.29-.85l1.78,1.93A6,6,0,0,1,134.35,26a7.6,7.6,0,0,1-3.44-.76,5.6,5.6,0,0,1-2.3-2.11,5.71,5.71,0,0,1-.82-3.05,5.85,5.85,0,0,1,.81-3.05A5.52,5.52,0,0,1,130.8,15a6.82,6.82,0,0,1,6.18,0A5.34,5.34,0,0,1,139.13,17a6.18,6.18,0,0,1,.78,3.15S139.89,20.49,139.85,21.05Zm-7.8-3.7a2.68,2.68,0,0,0-.94,1.75h5.66a2.94,2.94,0,0,0-4.72-1.75Z" style="fill:#edeff9"/><path d="M152.57,15.47a5.05,5.05,0,0,1,1.31,3.8v6.58h-3.33V19.79a3,3,0,0,0-.6-2,2.19,2.19,0,0,0-1.73-.68,2.66,2.66,0,0,0-2,.78,3.22,3.22,0,0,0-.74,2.32v5.68h-3.34V14.36h3.19V15.7A4.56,4.56,0,0,1,147,14.58a5.84,5.84,0,0,1,2.16-.39A4.76,4.76,0,0,1,152.57,15.47Z" style="fill:#edeff9"/><path d="M164.31,25.3a3.45,3.45,0,0,1-1.21.54,6.1,6.1,0,0,1-1.5.19A4.48,4.48,0,0,1,158.42,25a4,4,0,0,1-1.12-3.08V17.18h-1.77V14.62h1.77v-2.8h3.34v2.8h2.86v2.56h-2.86v4.68A1.56,1.56,0,0,0,161,23a1.4,1.4,0,0,0,1.06.4,2.17,2.17,0,0,0,1.34-.43Z" style="fill:#edeff9"/><path d="M168,25.27a5.65,5.65,0,0,1-2.25-2.11,6.1,6.1,0,0,1,0-6.11A5.56,5.56,0,0,1,168,15a7.35,7.35,0,0,1,6.51,0,5.6,5.6,0,0,1,2.24,2.1,6.17,6.17,0,0,1,0,6.11,5.69,5.69,0,0,1-2.24,2.11,7.35,7.35,0,0,1-6.51,0Zm5.36-2.84a3.23,3.23,0,0,0,.83-2.32,3.21,3.21,0,0,0-.83-2.32,2.77,2.77,0,0,0-2.1-.87,2.81,2.81,0,0,0-2.12.87,3.21,3.21,0,0,0-.83,2.32,3.23,3.23,0,0,0,.83,2.32,2.84,2.84,0,0,0,2.12.86A2.8,2.8,0,0,0,173.4,22.43Z" style="fill:#edeff9"/></g></svg>